<svg xmlns="http://www.w3.org/2000/svg" width="805" height="600"><rect width="805" height="600" x="0" y="0" fill="#FFFFFF" id="background"/><g id="series"><g transform="translate(0,0)"><g transform="translate(150,50)" clip-path="url(#serieClipPath)"><g id="axis"><g transform="translate(0,500)" fill="none" font-size="10" font-family="sans-serif" text-anchor="middle"><path class="domain" stroke="currentColor" d="M0.5,6V0.5H605.5V6"/><g class="tick" opacity="1" transform="translate(0.5,0)"><line stroke="currentColor" y2="6"/><text fill="currentColor" y="9" dy="0.71em">0</text></g><g class="tick" opacity="1" transform="translate(43.5,0)"><line stroke="currentColor" y2="6"/><text fill="currentColor" y="9" dy="0.71em">1,000,000</text></g><g class="tick" opacity="1" transform="translate(86.5,0)"><line stroke="currentColor" y2="6"/><text fill="currentColor" y="9" dy="0.71em">2,000,000</text></g><g class="tick" opacity="1" transform="translate(130.5,0)"><line stroke="currentColor" y2="6"/><text fill="currentColor" y="9" dy="0.71em">3,000,000</text></g><g class="tick" opacity="1" transform="translate(173.5,0)"><line stroke="currentColor" y2="6"/><text fill="currentColor" y="9" dy="0.71em">4,000,000</text></g><g class="tick" opacity="1" transform="translate(216.5,0)"><line stroke="currentColor" y2="6"/><text fill="currentColor" y="9" dy="0.71em">5,000,000</text></g><g class="tick" opacity="1" transform="translate(259.5,0)"><line stroke="currentColor" y2="6"/><text fill="currentColor" y="9" dy="0.71em">6,000,000</text></g><g class="tick" opacity="1" transform="translate(303.5,0)"><line stroke="currentColor" y2="6"/><text fill="currentColor" y="9" dy="0.71em">7,000,000</text></g><g class="tick" opacity="1" transform="translate(346.5,0)"><line stroke="currentColor" y2="6"/><text fill="currentColor" y="9" dy="0.71em">8,000,000</text></g><g class="tick" opacity="1" transform="translate(389.5,0)"><line stroke="currentColor" y2="6"/><text fill="currentColor" y="9" dy="0.71em">9,000,000</text></g><g class="tick" opacity="1" transform="translate(432.5,0)"><line stroke="currentColor" y2="6"/><text fill="currentColor" y="9" dy="0.71em">10,000,000</text></g><g class="tick" opacity="1" transform="translate(475.5,0)"><line stroke="currentColor" y2="6"/><text fill="currentColor" y="9" dy="0.71em">11,000,000</text></g><g class="tick" opacity="1" transform="translate(519.5,0)"><line stroke="currentColor" y2="6"/><text fill="currentColor" y="9" dy="0.71em">12,000,000</text></g><g class="tick" opacity="1" transform="translate(562.5,0)"><line stroke="currentColor" y2="6"/><text fill="currentColor" y="9" dy="0.71em">13,000,000</text></g><g class="tick" opacity="1" transform="translate(605.5,0)"><line stroke="currentColor" y2="6"/><text fill="currentColor" y="9" dy="0.71em">14,000,000</text></g><text x="605" dy="-5" text-anchor="end" style="font-family: Arial, sans-serif; font-size: 12px; fill: rgb(123, 123, 123); font-weight: bold;">total_electores_padron</text></g><g fill="none" font-size="10" font-family="sans-serif" text-anchor="end"><path class="domain" stroke="currentColor" d="M-6,500.5H0.5V0.5H-6"/><g class="tick" opacity="1" transform="translate(0,500.5)"><line stroke="currentColor" x2="-6"/><text fill="currentColor" x="-9" dy="0.32em">60</text></g><g class="tick" opacity="1" transform="translate(0,438.5)"><line stroke="currentColor" x2="-6"/><text fill="currentColor" x="-9" dy="0.32em">62</text></g><g class="tick" opacity="1" transform="translate(0,375.5)"><line stroke="currentColor" x2="-6"/><text fill="currentColor" x="-9" dy="0.32em">64</text></g><g class="tick" opacity="1" transform="translate(0,313.5)"><line stroke="currentColor" x2="-6"/><text fill="currentColor" x="-9" dy="0.32em">66</text></g><g class="tick" opacity="1" transform="translate(0,250.5)"><line stroke="currentColor" x2="-6"/><text fill="currentColor" x="-9" dy="0.32em">68</text></g><g class="tick" opacity="1" transform="translate(0,188.5)"><line stroke="currentColor" x2="-6"/><text fill="currentColor" x="-9" dy="0.32em">70</text></g><g class="tick" opacity="1" transform="translate(0,125.5)"><line stroke="currentColor" x2="-6"/><text fill="currentColor" x="-9" dy="0.32em">72</text></g><g class="tick" opacity="1" transform="translate(0,63.5)"><line stroke="currentColor" x2="-6"/><text fill="currentColor" x="-9" dy="0.32em">74</text></g><g class="tick" opacity="1" transform="translate(0,0.5)"><line stroke="currentColor" x2="-6"/><text fill="currentColor" x="-9" dy="0.32em">76</text></g><text x="4" text-anchor="start" dominant-baseline="hanging" style="font-family: Arial, sans-serif; font-size: 12px; fill: rgb(123, 123, 123); font-weight: bold;">%_part</text></g></g><g id="viz"><g><circle cx="24" cy="60" fill="rgb(227, 217, 49)" r="7.5" stroke="none"/></g><g><circle cx="57" cy="91" fill="rgb(144, 12, 0)" r="7.5" stroke="none"/></g><g><circle cx="26" cy="110" fill="rgb(72, 246, 137)" r="7.5" stroke="none"/></g><g><circle cx="49" cy="152" fill="rgb(40, 217, 193)" r="7.5" stroke="none"/></g><g><circle cx="6" cy="155" fill="rgb(154, 14, 0)" r="7.5" stroke="none"/></g><g><circle cx="65" cy="159" fill="rgb(166, 247, 72)" r="7.5" stroke="none"/></g><g><circle cx="26" cy="188" fill="rgb(255, 138, 31)" r="7.5" stroke="none"/></g><g><circle cx="11" cy="219" fill="rgb(233, 77, 20)" r="7.5" stroke="none"/></g><g><circle cx="26" cy="232" fill="rgb(249, 194, 41)" r="7.5" stroke="none"/></g><g><circle cx="13" cy="234" fill="rgb(99, 253, 112)" r="7.5" stroke="none"/></g><g><circle cx="18" cy="244" fill="rgb(252, 107, 26)" r="7.5" stroke="none"/></g><g><circle cx="21" cy="248" fill="rgb(67, 109, 241)" r="7.5" stroke="none"/></g><g><circle cx="567" cy="254" fill="rgb(35, 23, 27)" r="7.5" stroke="none"/></g><g><circle cx="132" cy="260" fill="rgb(37, 194, 219)" r="7.5" stroke="none"/></g><g><circle cx="40" cy="263" fill="rgb(43, 168, 240)" r="7.5" stroke="none"/></g><g><circle cx="109" cy="274" fill="rgb(54, 140, 249)" r="7.5" stroke="none"/></g><g><circle cx="122" cy="288" fill="rgb(206, 50, 13)" r="7.5" stroke="none"/></g><g><circle cx="21" cy="308" fill="rgb(51, 234, 165)" r="7.5" stroke="none"/></g><g><circle cx="43" cy="315" fill="rgb(199, 235, 59)" r="7.5" stroke="none"/></g><g><circle cx="35" cy="329" fill="rgb(178, 28, 6)" r="7.5" stroke="none"/></g><g><circle cx="15" cy="353" fill="rgb(68, 50, 140)" r="7.5" stroke="none"/></g><g><circle cx="13" cy="397" fill="rgb(131, 253, 90)" r="7.5" stroke="none"/></g><g><circle cx="43" cy="409" fill="rgb(75, 79, 208)" r="7.5" stroke="none"/></g><g><circle cx="47" cy="484" fill="rgb(255, 167, 35)" r="7.5" stroke="none"/></g><g id="labels"><g transform="translate(24,60)"><text x="0" y="0" text-anchor="middle" dominant-baseline="text-before-edge" transform="translate(0,-5.5)"><tspan x="0" y="0" dy="0" style="font-family: Arial, sans-serif; font-size: 10px; fill: black; font-weight: bold;">Neuquén</tspan></text></g><g transform="translate(57,91)"><text x="0" y="0" text-anchor="middle" dominant-baseline="text-before-edge" transform="translate(0,-5.5)"><tspan x="0" y="0" dy="0" style="font-family: Arial, sans-serif; font-size: 10px; fill: black; font-weight: bold;">Tucumán</tspan></text></g><g transform="translate(26,110)"><text x="0" y="0" text-anchor="middle" dominant-baseline="text-before-edge" transform="translate(0,-5.5)"><tspan x="0" y="0" dy="0" style="font-family: Arial, sans-serif; font-size: 10px; fill: black; font-weight: bold;">Jujuy</tspan></text></g><g transform="translate(49,152)"><text x="0" y="0" text-anchor="middle" dominant-baseline="text-before-edge" transform="translate(0,-5.5)"><tspan x="0" y="0" dy="0" style="font-family: Arial, sans-serif; font-size: 10px; fill: black; font-weight: bold;">Entre Ríos</tspan></text></g><g transform="translate(6,155)"><text x="0" y="0" text-anchor="middle" dominant-baseline="text-before-edge" transform="translate(0,-5.5)"><tspan x="0" y="0" dy="0" style="font-family: Arial, sans-serif; font-size: 10px; fill: black; font-weight: bold;">Tierra del Fuego, Antártida e Islas del Atlántico Sur</tspan></text></g><g transform="translate(65,159)"><text x="0" y="0" text-anchor="middle" dominant-baseline="text-before-edge" transform="translate(0,-5.5)"><tspan x="0" y="0" dy="0" style="font-family: Arial, sans-serif; font-size: 10px; fill: black; font-weight: bold;">Mendoza</tspan></text></g><g transform="translate(26,188)"><text x="0" y="0" text-anchor="middle" dominant-baseline="text-before-edge" transform="translate(0,-5.5)"><tspan x="0" y="0" dy="0" style="font-family: Arial, sans-serif; font-size: 10px; fill: black; font-weight: bold;">San Juan</tspan></text></g><g transform="translate(11,219)"><text x="0" y="0" text-anchor="middle" dominant-baseline="text-before-edge" transform="translate(0,-5.5)"><tspan x="0" y="0" dy="0" style="font-family: Arial, sans-serif; font-size: 10px; fill: black; font-weight: bold;">Santa Cruz</tspan></text></g><g transform="translate(26,232)"><text x="0" y="0" text-anchor="middle" dominant-baseline="text-before-edge" transform="translate(0,-5.5)"><tspan x="0" y="0" dy="0" style="font-family: Arial, sans-serif; font-size: 10px; fill: black; font-weight: bold;">Río Negro</tspan></text></g><g transform="translate(13,234)"><text x="0" y="0" text-anchor="middle" dominant-baseline="text-before-edge" transform="translate(0,-5.5)"><tspan x="0" y="0" dy="0" style="font-family: Arial, sans-serif; font-size: 10px; fill: black; font-weight: bold;">La Pampa</tspan></text></g><g transform="translate(18,244)"><text x="0" y="0" text-anchor="middle" dominant-baseline="text-before-edge" transform="translate(0,-5.5)"><tspan x="0" y="0" dy="0" style="font-family: Arial, sans-serif; font-size: 10px; fill: black; font-weight: bold;">San Luis</tspan></text></g><g transform="translate(21,248)"><text x="0" y="0" text-anchor="middle" dominant-baseline="text-before-edge" transform="translate(0,-5.5)"><tspan x="0" y="0" dy="0" style="font-family: Arial, sans-serif; font-size: 10px; fill: black; font-weight: bold;">Chubut</tspan></text></g><g transform="translate(567,254)"><text x="0" y="0" text-anchor="middle" dominant-baseline="text-before-edge" transform="translate(0,-5.5)"><tspan x="0" y="0" dy="0" style="font-family: Arial, sans-serif; font-size: 10px; fill: black; font-weight: bold;">Buenos Aires</tspan></text></g><g transform="translate(132,260)"><text x="0" y="0" text-anchor="middle" dominant-baseline="text-before-edge" transform="translate(0,-5.5)"><tspan x="0" y="0" dy="0" style="font-family: Arial, sans-serif; font-size: 10px; fill: black; font-weight: bold;">Córdoba</tspan></text></g><g transform="translate(40,263)"><text x="0" y="0" text-anchor="middle" dominant-baseline="text-before-edge" transform="translate(0,-5.5)"><tspan x="0" y="0" dy="0" style="font-family: Arial, sans-serif; font-size: 10px; fill: black; font-weight: bold;">Corrientes</tspan></text></g><g transform="translate(109,274)"><text x="0" y="0" text-anchor="middle" dominant-baseline="text-before-edge" transform="translate(0,-5.5)"><tspan x="0" y="0" dy="0" style="font-family: Arial, sans-serif; font-size: 10px; fill: black; font-weight: bold;">Ciudad Autónoma de Buenos Aires</tspan></text></g><g transform="translate(122,288)"><text x="0" y="0" text-anchor="middle" dominant-baseline="text-before-edge" transform="translate(0,-5.5)"><tspan x="0" y="0" dy="0" style="font-family: Arial, sans-serif; font-size: 10px; fill: black; font-weight: bold;">Santa Fe</tspan></text></g><g transform="translate(21,308)"><text x="0" y="0" text-anchor="middle" dominant-baseline="text-before-edge" transform="translate(0,-5.5)"><tspan x="0" y="0" dy="0" style="font-family: Arial, sans-serif; font-size: 10px; fill: black; font-weight: bold;">Formosa</tspan></text></g><g transform="translate(43,315)"><text x="0" y="0" text-anchor="middle" dominant-baseline="text-before-edge" transform="translate(0,-5.5)"><tspan x="0" y="0" dy="0" style="font-family: Arial, sans-serif; font-size: 10px; fill: black; font-weight: bold;">Misiones</tspan></text></g><g transform="translate(35,329)"><text x="0" y="0" text-anchor="middle" dominant-baseline="text-before-edge" transform="translate(0,-5.5)"><tspan x="0" y="0" dy="0" style="font-family: Arial, sans-serif; font-size: 10px; fill: black; font-weight: bold;">Santiago del Estero</tspan></text></g><g transform="translate(15,353)"><text x="0" y="0" text-anchor="middle" dominant-baseline="text-before-edge" transform="translate(0,-5.5)"><tspan x="0" y="0" dy="0" style="font-family: Arial, sans-serif; font-size: 10px; fill: black; font-weight: bold;">Catamarca</tspan></text></g><g transform="translate(13,397)"><text x="0" y="0" text-anchor="middle" dominant-baseline="text-before-edge" transform="translate(0,-5.5)"><tspan x="0" y="0" dy="0" style="font-family: Arial, sans-serif; font-size: 10px; fill: black; font-weight: bold;">La Rioja</tspan></text></g><g transform="translate(43,409)"><text x="0" y="0" text-anchor="middle" dominant-baseline="text-before-edge" transform="translate(0,-5.5)"><tspan x="0" y="0" dy="0" style="font-family: Arial, sans-serif; font-size: 10px; fill: black; font-weight: bold;">Chaco</tspan></text></g><g transform="translate(47,484)"><text x="0" y="0" text-anchor="middle" dominant-baseline="text-before-edge" transform="translate(0,-5.5)"><tspan x="0" y="0" dy="0" style="font-family: Arial, sans-serif; font-size: 10px; fill: black; font-weight: bold;">Salta</tspan></text></g></g></g></g><text y="4" x="4" style="font-family: Arial, sans-serif; font-size: 12px; fill: black; font-weight: bold; dominant-baseline: hanging;"/></g></g><g id="grid"><rect x="0" y="0" width="805" height="600" fill="none" stroke="#ccc"/></g><clipPath id="serieClipPath"><rect x="-150" y="-50" width="805" height="600"/></clipPath></svg>